<svg width="220" height="48" viewBox="0 0 220 48" xmlns="http://www.w3.org/2000/svg" role="img" aria-label="Learn &amp; Study logo">
  <g transform="translate(0,6)">
    <path d="M2 6 C2 4 4 3 6 3 L16 3 C20 3 22 5 22 8 C22 5 24 3 28 3 L38 3 C40 3 42 4 42 6 L42 28 C42 30 40 31 38 31 L28 31 C24 31 22 33 22 36 C22 33 20 31 16 31 L6 31 C4 31 2 30 2 28 Z"
      fill="none" stroke="#FFD60A" stroke-width="2.4" stroke-linejoin="round" stroke-linecap="round"/>
    <line x1="22" y1="8" x2="22" y2="33" stroke="#FFD60A" stroke-width="2.4" stroke-linecap="round"/>
  </g>
  <text x="54" y="31" font-family="Inter, Arial, sans-serif" font-size="22" font-weight="700" fill="#F1F2FF">Learn</text>
  <text x="118" y="31" font-family="Inter, Arial, sans-serif" font-size="22" font-weight="700" fill="#FFD60A">&amp;</text>
  <text x="134" y="31" font-family="Inter, Arial, sans-serif" font-size="22" font-weight="700" fill="#F1F2FF">Study</text>
</svg>
